<?xml version="1.0" standalone="no"?><!DOCTYPE svg PUBLIC "-//W3C//DTD SVG 1.1//EN" "http://www.w3.org/Graphics/SVG/1.1/DTD/svg11.dtd">
<svg t="1781947295561" class="icon" viewBox="0 0 1142 1024" version="1.1" xmlns="http://www.w3.org/2000/svg" p-id="6021"
     width="17.84375" height="16"><path d="M873.459158 618.794405s-1.242825-7.629768-1.969951-7.560824l-138.449953 13.357609a22.503219 22.503219 0 0 0-20.344822 20.889018l-3.803853 54.516071-107.110912 7.641718-7.285049-49.407803c-1.622475-10.989624-11.219436-19.273897-22.328562-19.273897H426.042211c-11.10453 0-20.701491 8.284273-22.323966 19.273897l-7.289646 49.407803-107.110911-7.641718-3.802933-54.516071a22.503219 22.503219 0 0 0-20.345742-20.892695l-138.517978-13.353932c-0.715176-0.068944-1.240067 7.568178-1.955243 7.568178l-0.187526 29.962007 117.311819 18.918147 3.842461 55.001435c0.776766 11.134865 9.760587 20.13891 20.903726 20.938657l147.514669 10.522645a24.258985 24.258985 0 0 0 1.660164 0.06159c11.086145 0 20.666559-8.28887 22.289034-19.278493l7.496477-50.838155h107.160551l7.495557 50.838155c1.618798 10.985947 11.212082 19.273897 22.312935 19.273897 0.542357 0 1.086552-0.018385 1.617878-0.056994l147.533974-10.522645c11.138542-0.799747 20.12696-9.803792 20.903725-20.938657l3.838785-55.001435 117.262179-19.002718z" fill="#FFFFFF" p-id="6022"></path><path d="M124.693035 392.875137v225.919268c0.413662 0.003677 0.826405 0.018385 1.235471 0.056993l138.503269 13.354852a14.912979 14.912979 0 0 1 13.446777 13.80988l4.269912 61.139261 120.816916 8.620719 8.322882-56.429029a14.91206 14.91206 0 0 1 14.754868-12.738035h146.125684c7.396279 0 13.671993 5.421731 14.751191 12.738035l8.322882 56.429029 120.820593-8.620719 4.266235-61.139261a14.919414 14.919414 0 0 1 13.446777-13.80988l138.449034-13.354852c0.409985-0.037689 0.819051-0.053316 1.231794-0.056993v-18.026476l0.057912-0.018385V392.874218h0.512941c18.348213-23.417872 35.326745-48.095116 51.607567-74.420573-21.623498-36.811332-48.118097-69.706663-76.437406-100.185288-26.264787 13.220641-51.776708 28.197048-75.872067 44.13499-12.056872-11.98517-25.637859-21.788043-38.976164-32.035833-13.105735-10.526322-27.876231-18.244338-41.884668-27.237352 4.170633-31.058671 6.233428-61.635656 7.06351-93.549228-36.144877-18.191021-74.688994-30.25249-113.677108-38.914575-15.565646 26.161831-29.800219 54.49309-42.198132 82.188228-14.701552-2.456234-29.471128-3.36721-44.260927-3.542786v-0.022981c-0.102956 0-0.198558 0.022981-0.286806 0.022981-0.091925 0-0.187527-0.022981-0.279452-0.022981v0.022981c-14.815539 0.175577-29.575003 1.086552-44.280231 3.542786-12.38964-27.696058-26.616859-56.027317-42.205487-82.188228-38.96881 8.663004-77.516604 20.723553-113.657803 38.914575 0.826405 31.913573 2.8892 62.490557 7.070864 93.550147-14.035096 8.992095-28.786287 16.710111-41.895699 27.237353-13.31992 10.24687-26.922969 20.049743-38.984438 32.034913-24.095359-15.937942-49.599007-30.914349-75.871148-44.13499C120.68327 248.746982 94.203379 281.643232 72.572527 318.455484c16.274387 26.325457 33.26395 51.002701 51.607567 74.420572z" fill="#478CBF" p-id="6023"></path><path d="M749.205169 660.685508l-4.289216 61.464675c-0.516618 7.408229-6.409005 13.305212-13.817234 13.836539l-147.530296 10.526322c-0.358507 0.027577-0.718853 0.038608-1.075522 0.038608-7.331012 0-13.656365-5.380365-14.739241-12.741712l-8.45985-57.374936H438.916295l-8.45985 57.374936c-1.137111 7.721693-8.039753 13.273958-15.814762 12.704023l-147.530296-10.527241c-7.408229-0.531326-13.300616-6.428309-13.816315-13.836539l-4.290136-61.464675-124.539875-12.007232c0.056993 13.384268 0.228893 28.04813 0.228893 30.967665 0 131.530765 166.852914 194.752125 374.156467 195.479251h0.509264c207.303553-0.726207 374.099473-63.948486 374.099473-195.479251 0-2.972852 0.179254-17.575125 0.240843-30.967665z" fill="#478CBF" p-id="6024"></path><path d="M386.234126 484.58311c0 46.116891-37.36564 83.475177-83.467823 83.475177-46.077364 0-83.454953-37.358286-83.454953-83.475177 0-46.085637 37.376671-83.424618 83.455873-83.424619 46.100345 0 83.466904 37.338981 83.466903 83.424619" fill="#FFFFFF" p-id="6025"></path><path d="M366.150371 489.534186c0 30.588935-24.79215 55.381084-55.403146 55.381084-30.597208 0-55.404066-24.79215-55.404066-55.381084s24.806858-55.403146 55.403146-55.403147c30.611916 0 55.403146 24.814212 55.403147 55.403147" fill="#414042" p-id="6026"></path><path d="M499.097699 575.652204c-14.83852 0-26.865056-10.936307-26.865057-24.417096v-76.840037c0-13.468839 12.026537-24.415257 26.865057-24.415257 14.839439 0 26.892634 10.946419 26.892634 24.415257v76.840037c0 13.480789-12.053195 24.417096-26.892634 24.417096M611.975979 484.58311c0 46.116891 37.36564 83.475177 83.474258 83.475177 46.074606 0 83.448519-37.358286 83.448519-83.475177 0-46.085637-37.373913-83.424618-83.448519-83.424619-46.108618 0-83.474258 37.338981-83.474258 83.424619" fill="#FFFFFF" p-id="6027"></path><path d="M632.064331 489.534186c0 30.588935 24.784796 55.381084 55.37373 55.381084 30.61927 0 55.403146-24.79215 55.403147-55.381084s-24.783876-55.403146-55.403147-55.403147c-30.588935 0-55.372811 24.814212-55.372811 55.403147" fill="#414042" p-id="6028"></path></svg>